<?xml version="1.0" standalone="no"?>
<!DOCTYPE svg PUBLIC "-//W3C//DTD SVG 20010904//EN"
 "http://www.w3.org/TR/2001/REC-SVG-20010904/DTD/svg10.dtd">
<svg version="1.0" xmlns="http://www.w3.org/2000/svg"
 width="188.000000pt" height="188.000000pt" viewBox="0 0 188.000000 188.000000"
 preserveAspectRatio="xMidYMid meet">
<metadata>
Created by potrace 1.11, written by Peter Selinger 2001-2013
</metadata>
<g transform="translate(0.000000,188.000000) scale(0.100000,-0.100000)"
fill="#000000" stroke="none">
<path d="M720 1751 c-203 -53 -355 -138 -492 -275 -84 -83 -175 -239 -192
-326 -1 -3 -5 -11 -9 -17 -5 -7 -6 -13 -3 -13 3 0 -1 -19 -8 -43 -25 -82 -15
-252 20 -353 18 -52 77 -170 105 -211 59 -85 243 -253 278 -253 5 0 11 -4 13
-8 3 -9 153 -82 169 -82 5 0 17 -4 27 -9 18 -10 92 -31 130 -37 12 -2 34 -6
50 -9 15 -3 63 -7 107 -10 44 -2 82 -5 85 -6 3 -1 10 0 15 1 6 1 37 4 70 6
110 7 177 21 290 61 158 55 300 150 418 279 27 30 28 33 16 78 -6 25 -14 46
-18 46 -4 0 -15 -14 -25 -30 -17 -30 -99 -116 -146 -155 -52 -42 -177 -98
-255 -113 -55 -10 -214 -7 -260 5 -27 8 -54 15 -60 17 -28 7 -110 48 -151 77
-99 68 -179 163 -229 274 -29 63 -29 63 -49 150 -16 72 -13 259 4 305 1 3 3
10 5 15 1 6 3 13 5 18 1 4 4 12 5 17 1 6 4 12 5 15 1 3 3 8 4 13 12 52 87 173
150 240 37 40 164 132 181 132 4 0 21 7 38 14 69 32 150 45 251 42 85 -3 141
-9 141 -16 0 -1 9 -3 21 -5 11 -3 50 -18 87 -36 l67 -31 -18 -32 c-11 -17 -34
-58 -53 -91 -19 -33 -38 -68 -44 -77 -57 -98 -141 -245 -144 -253 -2 -5 -7
-12 -10 -15 -15 -12 -62 -112 -50 -105 8 5 37 24 66 42 29 18 56 33 62 33 5 0
11 4 13 8 2 4 68 49 148 99 244 152 320 203 320 213 0 6 -4 10 -10 10 -5 0
-10 7 -10 15 0 9 -7 18 -15 21 -8 4 -15 11 -15 17 0 13 -167 177 -180 177 -5
0 -15 6 -22 14 -31 30 -203 117 -263 133 -5 1 -44 12 -85 24 -63 19 -104 22
-260 24 -173 3 -192 1 -290 -24z"/>
</g>
</svg>
