<?xml version="1.0" encoding="utf-8"?>
<!-- Generator: Adobe Illustrator 19.0.0, SVG Export Plug-In . SVG Version: 6.00 Build 0)  -->
<svg version="1.1" id="Layer_1" xmlns="http://www.w3.org/2000/svg" xmlns:xlink="http://www.w3.org/1999/xlink" x="0px" y="0px"
	 viewBox="0 0 314.3 173" style="enable-background:new 0 0 314.3 173;" xml:space="preserve">
<style type="text/css">
	.st0{fill:#C91A21;}
	.st1{clip-path:url(#XMLID_29_);fill:#B2181E;}
	.st2{fill:#DFE1DF;}
	.st3{fill:#FFFFFF;}
	.st4{fill:#E9EBEB;}
	.st5{fill:#DB1A21;}
	.st6{fill:#D3452D;}
</style>
<g id="Logo">
	<g id="XMLID_232_">
		<g id="XMLID_246_">
			<defs>
				<path id="XMLID_247_" d="M180.9,116.7h-61.8c-13.7,0-24.9-11.2-24.9-24.9V30c0-13.7,11.2-24.9,24.9-24.9h61.8
					c13.7,0,24.9,11.2,24.9,24.9v61.8C205.8,105.5,194.6,116.7,180.9,116.7z"/>
			</defs>
			<clipPath id="XMLID_28_">
				<use xlink:href="#XMLID_247_"  style="overflow:visible;"/>
			</clipPath>
		</g>
	</g>
	<g id="XMLID_214_">
		<path id="XMLID_231_" class="st0" d="M180.9,116.7h-61.8c-13.7,0-24.9-11.2-24.9-24.9V30c0-13.7,11.2-24.9,24.9-24.9h61.8
			c13.7,0,24.9,11.2,24.9,24.9v61.8C205.8,105.5,194.6,116.7,180.9,116.7z"/>
		<g id="XMLID_228_">
			<defs>
				<path id="XMLID_229_" d="M180.9,116.7h-61.8c-13.7,0-24.9-11.2-24.9-24.9V30c0-13.7,11.2-24.9,24.9-24.9h61.8
					c13.7,0,24.9,11.2,24.9,24.9v61.8C205.8,105.5,194.6,116.7,180.9,116.7z"/>
			</defs>
			<clipPath id="XMLID_29_">
				<use xlink:href="#XMLID_229_"  style="overflow:visible;"/>
			</clipPath>
			<polygon id="XMLID_230_" class="st1" points="134.2,116.8 110.3,92.4 129.5,48.2 190.5,48.2 205.8,63.1 205.8,116.8 			"/>
		</g>
		<g id="XMLID_215_">
			<g id="XMLID_226_">
				<polygon id="XMLID_227_" class="st2" points="127.9,48.2 127.9,28.9 171.2,28.9 188.8,48.2 				"/>
			</g>
			<g id="XMLID_224_">
				<rect id="XMLID_225_" x="110.3" y="28.9" class="st3" width="19.2" height="63.4"/>
			</g>
			<g id="XMLID_222_">
				<rect id="XMLID_223_" x="140.9" y="28.9" class="st3" width="19.2" height="63.4"/>
			</g>
			<g id="XMLID_220_">
				<polygon id="XMLID_221_" class="st3" points="190.5,92.3 171.2,92.3 171.2,28.9 190.5,48.2 				"/>
			</g>
			<g id="XMLID_218_">
				<path id="XMLID_219_" class="st4" d="M171.2,48.2c-3.7,0-7.4,0-11.1,0c0-3.3,0-6.5,0-9.8C163.8,41.6,167.5,44.9,171.2,48.2z"/>
			</g>
			<g id="XMLID_216_">
				<path id="XMLID_217_" class="st4" d="M140.9,48.2c-3.8,0-7.6,0-11.3,0c0-3.3,0-6.5,0-9.8C133.3,41.6,137.1,44.9,140.9,48.2z"/>
			</g>
		</g>
	</g>
	<g id="XMLID_196_">
		<g id="XMLID_210_">
			<defs>
				<path id="XMLID_211_" d="M180.9,116.7h-61.8c-13.7,0-24.9-11.2-24.9-24.9V30c0-13.7,11.2-24.9,24.9-24.9h61.8
					c13.7,0,24.9,11.2,24.9,24.9v61.8C205.8,105.5,194.6,116.7,180.9,116.7z"/>
			</defs>
			<clipPath id="XMLID_30_">
				<use xlink:href="#XMLID_211_"  style="overflow:visible;"/>
			</clipPath>
		</g>
	</g>
</g>
<g id="Microstrategy">
	<g id="XMLID_280_">
		<path id="XMLID_295_" class="st5" d="M56.6,123L61,122l-3.7-0.9l1.9-2.6l-3.4,1l0.6-3.7l-2.4,1.7l-1.1-4.8l-1,5.4l-2.9-2.4l1,3.3
			l-2.7-0.5l2.3,2.7l-3.9,0.8l4,0.9l-1.6,1.9l2.4-0.2l-1.1,3.6l2.7-3l0.8,4.9l0.9-4.9l2.1,2.4l-0.2-3l3,1.1L56.6,123z M55,121.7
			c0,1.1-0.8,2-1.8,2s-1.8-0.9-1.8-2c0-1.1,0.8-2,1.8-2C54.2,119.7,55.1,120.6,55,121.7C55.1,121.7,55.1,121.7,55,121.7L55,121.7z"
			/>
		<path id="XMLID_292_" class="st6" d="M308.9,132.5h0.7c0.5,0,0.6,0.2,0.6,0.5c0,0.3-0.1,0.5-0.6,0.5h-0.7
			C308.9,133.5,308.9,132.5,308.9,132.5z M309.5,133.9c0.2,0,0.3,0,0.4,0.2c0.1,0.2,0.2,0.5,0.2,0.7c0,0.2,0.1,0.4,0.1,0.6h0.4
			c-0.1-0.3-0.2-0.6-0.2-1c0-0.3-0.2-0.6-0.5-0.7l0,0c0.3-0.1,0.6-0.4,0.6-0.8c0-0.5-0.4-0.9-0.9-0.9c0,0-0.1,0-0.1,0h-1.1v3.2h0.4
			v-1.4L309.5,133.9L309.5,133.9z"/>
		<path id="XMLID_289_" class="st6" d="M311.6,133.7c0,1.3-1,2.3-2.1,2.3s-2.1-1-2.1-2.3s1-2.3,2.1-2.3l0,0
			C310.7,131.4,311.6,132.4,311.6,133.7z M309.5,130.9c-1.4,0-2.6,1.3-2.6,2.8c0,1.6,1.2,2.8,2.6,2.8c1.4,0,2.6-1.3,2.6-2.8
			C312.1,132.2,310.9,130.9,309.5,130.9C309.5,130.9,309.5,130.9,309.5,130.9z"/>
		<path id="XMLID_288_" class="st5" d="M30.6,120.8L27,134.5c-0.4,1.5-0.6,3.1-0.8,4.6h-0.3l-4.4-18.4h-12l-5.2,35h11.3l1.4-14.9
			c0.1-1.4,0.2-2.8,0.3-4.2h0.4c0.1,1.5,0.4,2.9,0.7,4.4l4.2,14.8h6.8l4.6-15.7c0.3-1.1,0.6-2.3,0.8-3.5h0.2l1.6,19.2h11.3l-5.3-35
			H30.6z"/>
		<path id="XMLID_287_" class="st5" d="M58.8,139.7v-8.6h-11v24.6h11v-8.2c1.5,5.7,6.1,8.7,12.1,8.7c1.9-0.1,3.8-0.5,5.5-1.2
			l0.5-10.1c-1.3,1-2.6,1.9-4.3,1.9c-1.8-0.1-3.3-1.7-3.2-3.7c0.1-2,1.6-3.5,3.4-3.5c1.5,0.1,3,0.9,4,2v-10
			c-2.2-0.8-4.6-1.2-6.9-1.3C64.8,130.5,60.2,134.2,58.8,139.7z"/>
		<path id="XMLID_281_" class="st5" d="M295,130.7l-3.9,9.7l-1.1,3.8h-0.3l-0.1-3.8l-1.1-9.7h-21.9l-0.2,3.5h-0.3
			c-1-2.6-3.4-4.2-6-4.1c-5.5,0-9.6,5.1-11.1,10.5c-0.6-6.4-5.4-10.1-12-10.1c-4.9-0.1-9.4,2.4-12.4,6.6l0.9-5.9l-3.7,0.2l1.2-8.3
			h-11.1l-1.2,8.3l-2.3-0.2v-0.1h-10.7l-0.1,2.9h-0.3c-1.3-2.4-3.4-3.5-6.1-3.5c-5.4,0-9.3,4.7-11,9.9l1.4-9.7
			c-3.7-0.1-5.8,0.6-8.2,3.8h-0.3l0.8-3.3h-11l-3.7,0.2l1.2-8.3h-11.1l-1.2,8.2l-2.6-0.2l-1.1,7.5c-1.1-2.5-3.5-3.9-6.5-4.7
			l-2.5-0.7c-0.9-0.2-2.3-0.4-2.1-1.7c0.2-1.4,1.8-1.9,2.8-1.9c2.3,0.1,4.6,1,6.4,2.6l4.5-9c-2.9-2.1-6.3-3.2-9.7-3.1
			c-7,0-14.6,4.6-15.8,13c-0.8,5.5,2.6,8.4,7,9.3l2.3,0.5c1,0.2,2.5,0.4,2.3,1.9c-0.2,1.6-2.1,2.1-3.3,2.1c-2.6-0.1-5-1.3-6.8-3.2
			c0,0-0.2-0.2-0.6-0.7c-0.2-8.4-6.3-12.8-13.7-12.8c-4.9,0-9.2,1.9-11.6,5.7v-5.7c-3.7-0.1-5.7,0.6-7.7,3.8H89l0.3-3.3h-11v24.7h11
			v-9.5c0-3.1,1.5-4.9,4.3-4.9c0.5,0,1,0.1,1.4,0.3c-0.1,0.7-0.1,1.4-0.1,2.1c0,8.2,6.6,12.6,13.7,12.6c3.2,0.1,6.3-0.9,8.9-2.8
			c3.6,2,7.7,3.1,11.8,3.1c6.9,0,14.5-4.1,15.7-12.5c0.2-1.2,0.2-2.3,0-3.5l1.9-0.2l-2.2,15.3h11.1l2.2-15.3l3.7,0.2l-2.2,15.2h11
			l1.4-9.5c0.4-3.1,2.2-4.9,5-4.9c1.1,0,2.1,0.4,2.9,1.2c-0.1,0.3-0.1,0.6-0.1,0.8c-0.9,6,1.5,12.8,7.7,12.8c3.1,0,5.1-1.5,7.5-3.8
			h0.3l-0.8,3.2h10.7l2.2-15.2l2.4-0.2l-2.2,15.4h11.1l2.2-15.3l2.4,0.2c-0.4,1-0.6,2.1-0.8,3.2c-1.2,8.5,4.7,12.5,11.8,12.5
			c5.2,0,11.7-2.7,14-8.7h-10.7c-0.4,1.2-1.4,2-2.5,2c-2.3,0-2.3-2.2-2-4.2h15.6c0,5.3,2.6,10.4,8,10.4c2.6,0,5.7-1.4,7.2-4.1h0.3
			l-0.6,2.5c-0.7,3.1-2.8,5.4-5.8,5.4c-2.8,0-5.4-1-7.5-3l-3.6,8.3l1.1,0.4c3,1.3,6.2,2,9.4,1.9c7.9,0,15.7-3.9,17.1-13.5l3.2-21.9
			l6.1,20.9l-7.7,12.6H287l19.6-34.9H295L295,130.7z M109.1,147.1c-1.7,0-3.1-1.5-3.1-3.3c0-1.8,1.4-3.3,3.1-3.3
			c1.7,0,3.1,1.5,3.1,3.3C112.1,145.6,110.7,147.1,109.1,147.1L109.1,147.1z M196.3,143.3c-0.3,1.9-1.4,3.7-3.5,3.7
			s-2.6-1.7-2.3-3.6c0.2-1.9,1.6-3.3,3.3-3.3C195.5,140,196.5,141.4,196.3,143.3z M238.8,140.3v0.1h-5.5v-0.2
			c0.1-1.6,1.1-2.9,2.5-3.3c0.2,0,0.4-0.1,0.6-0.1c0.7,0,1.3,0.3,1.8,0.8C238.7,138.5,238.9,139.4,238.8,140.3z M265.2,143.1
			c-0.3,1.9-1.4,3.4-3.3,3.4s-2.9-1.5-2.6-3.5c0.2-2,1.7-3.5,3.6-3.5C264.7,139.5,265.5,141.2,265.2,143.1z"/>
	</g>
</g>
</svg>
