<?xml version="1.0" encoding="utf-8"?>
<svg viewBox="80 0 250 250" xmlns="http://www.w3.org/2000/svg">
  <path style="stroke-width: 0.1px; fill: rgb(255, 255, 255);" d="M 85.177 202.5 C 84.782 187.271 110.469 184.065 111.698 200.767 C 111.698 200.767 111.982 202.225 113.505 202.224 C 116.703 202.221 123.113 202 123.559 201.939 C 124.206 201.677 125.095 201.552 125.095 199.466 C 125.095 182.326 112.776 175.945 101.234 175.826 C 89.692 175.707 71.887 180.86 71.054 203.196 C 70.934 206.734 71.115 223.01 71.557 226.105 C 72.55 242.099 85.921 248.051 98.557 247.949 C 121.55 247.83 124.867 228.481 124.838 226.113 C 124.967 224.099 123.766 223.572 123.766 223.572 C 123.353 223.004 115.407 223.307 113.623 223.449 C 113.623 223.449 111.836 223.565 111.277 225.838 C 109.135 239.258 87.699 238.866 85.495 225.09 C 84.383 220.683 85.054 211.304 85.177 202.5 Z"/>
  <path style="fill: rgb(255, 255, 255);" d="M 177.527 180.533 C 177.527 180.533 177.628 176.85 174.531 176.85 L 137.228 176.85 C 137.228 176.85 133.005 176.991 133.005 180.228 C 133.005 180.228 133.286 243.151 133.145 243.714 C 133.145 243.714 133.145 246.67 135.398 246.952 L 174.39 246.53 C 174.39 246.53 177.065 246.53 177.065 244.277 L 177.206 234.705 C 177.206 234.705 177.206 231.749 173.546 231.749 C 169.886 231.749 146.8 231.749 146.8 231.749 L 146.941 218.939 L 170.449 218.939 C 170.449 218.939 173.968 218.376 173.827 214.857 L 173.968 207.819 C 173.968 207.819 174.531 203.877 170.308 203.877 C 166.085 203.877 146.941 203.877 146.941 203.877 L 146.941 192.194 L 173.968 192.053 C 173.968 192.053 177.487 191.912 177.487 189.378 C 177.487 186.844 177.527 182.215 177.527 180.533 Z"/>
  <path style="paint-order: fill; fill: rgb(255, 255, 255);" d="M 214.863 177.342 C 220.424 177.458 224.505 179.005 227.469 181.308 C 230.469 183.572 232.345 186.602 233.53 189.6 C 235.96 195.57 235.544 201.046 235.516 201.55 C 235.541 208.173 232.807 213.14 230.054 216.472 C 227.397 219.795 224.562 221.515 224.562 221.515 C 224.562 221.515 238.258 241.14 238.995 242.225 C 239.877 243.486 239.7 244.912 239.7 244.912 C 239.564 245.607 239.125 246.101 238.705 246.358 C 238.203 246.725 237.677 246.865 237.677 246.865 L 225.343 246.865 L 209.372 224.598 L 202.151 224.598 L 202.142 225.588 C 202.107 229.274 201.993 241.728 201.94 244.099 C 202.049 245.299 201.24 245.96 200.576 246.281 C 199.929 246.666 199.42 246.67 199.236 246.683 C 198.903 246.686 193.506 246.737 190.977 246.789 C 190.343 246.848 189.849 246.609 189.513 246.267 C 189.138 245.963 188.914 245.507 188.762 245.068 C 188.418 244.202 188.446 243.31 188.446 243.31 L 188.602 180.146 C 188.613 178.934 189.129 178.211 189.646 177.876 C 190.107 177.488 190.621 177.404 190.707 177.392 C 190.715 177.391 190.719 177.39 190.719 177.39 L 190.711 177.392 L 214.863 177.342 Z M 202.157 192.598 L 202.039 209.105 L 215.034 209.105 C 215.034 209.105 221.005 208.988 221.356 201.262 C 221.356 201.262 222.058 192.716 214.917 192.482 L 202.157 192.598 Z"/>
  <path style="fill: rgb(255, 255, 255);" d="M 293.228 180.586 C 293.228 180.586 293.329 176.903 290.232 176.903 L 252.929 176.903 C 252.929 176.903 248.706 177.044 248.706 180.281 C 248.706 180.281 248.987 243.204 248.846 243.767 C 248.846 243.767 248.846 246.723 251.099 247.005 L 290.091 246.583 C 290.091 246.583 292.766 246.583 292.766 244.33 L 292.907 234.758 C 292.907 234.758 292.907 231.802 289.247 231.802 C 285.587 231.802 262.501 231.802 262.501 231.802 L 262.642 218.992 L 286.15 218.992 C 286.15 218.992 289.669 218.429 289.528 214.91 L 289.669 207.872 C 289.669 207.872 290.232 203.93 286.009 203.93 C 281.786 203.93 262.642 203.93 262.642 203.93 L 262.642 192.247 L 289.669 192.106 C 289.669 192.106 293.188 191.965 293.188 189.431 C 293.188 186.897 293.228 182.268 293.228 180.586 Z"/>
  <path style="fill: rgb(255, 255, 255);" d="M 323.876 190.919 C 323.876 190.919 331.932 190.697 337.402 197.571 C 337.402 197.571 339.323 199.197 341.245 197.497 L 346.271 190.697 C 346.271 190.697 347.454 188.036 345.458 186.188 C 343.462 184.34 325.237 168.328 309.019 181.754 C 307.32 182.734 294.404 196.933 308.206 212.058 C 308.206 212.058 312.789 217.454 324.245 218.341 C 324.245 218.341 333.189 218.932 333.854 226.693 C 333.854 226.693 334.223 234.084 325.797 233.788 C 325.797 233.788 316.484 235.045 310.867 227.58 C 310.867 227.58 310.004 226.049 309.019 225.88 C 307.879 225.772 307.171 225.921 306.58 226.734 C 305.989 227.547 301.849 232.869 301.849 232.869 C 301.849 232.869 299.558 235.529 302.293 238.116 C 302.293 238.116 313.602 250.238 328.606 247.651 C 343.61 245.064 348.045 233.583 347.232 221.609 C 346.419 209.635 328.572 202.828 320.433 202.121 C 312.294 201.414 313.64 190.373 323.876 190.919 Z"/>
</svg>