<?xml version="1.0" encoding="utf-8"?>
<!-- Generator: Adobe Illustrator 19.0.0, SVG Export Plug-In . SVG Version: 6.00 Build 0)  -->
<svg version="1.1" xmlns="http://www.w3.org/2000/svg" xmlns:xlink="http://www.w3.org/1999/xlink" x="0px" y="0px"
	 viewBox="0 0 457.1 458.9" style="enable-background:new 0 0 457.1 458.9;" xml:space="preserve">
<style type="text/css">
	.st0{display:none;}
	.st1{display:inline;fill:#6D6E71;}
	.st2{display:inline;fill:#FFFFFF;}
	.st3{display:inline;fill:#231F20;}
	.st4{fill:url(#XMLID_532_);}
	.st5{fill:url(#XMLID_533_);}
	.st6{fill:url(#XMLID_534_);}
</style>
<g id="_x34_th" class="st0">
	<path id="XMLID_263_" class="st1" d="M577.4,901.1c0,0-40.5-44.5-38.9-89.3c0.6-18.5,6.5-36,6.5-36c14.9-41.9,42.9-66.3,87.3-91.3
		c30.1-16.9,49.5-28.3,60.3-58.5c4-11.3,6.9-23.1,5.7-34.5c-4.4-42.8-32.8-72.7-78.8-72.7c-84.7-3-139.4,85.9-142.2,190.2
		C473.7,840.7,577.4,901.1,577.4,901.1z"/>
	<path id="XMLID_201_" class="st1" d="M589.3,509.5c0,0,58-16.2,97.3,5.2c16.2,8.8,29.3,22,29.3,22c30.7,32.1,40,68,42.4,118.9
		c1.7,34.5,3.1,56.9,25.3,80.1c8.3,8.7,17.6,16.5,28.3,20.6c40.2,15.2,79.7,3.3,100.3-37.9c40.7-74.3-14.2-163.1-106.2-212.3
		C689.8,443.9,589.3,509.5,589.3,509.5z"/>
	<path id="XMLID_198_" class="st1" d="M934.1,710.6c0,0-15.6,58.1-54.1,81c-15.9,9.5-33.8,14-33.8,14
		c-43.3,10.1-78.9-0.3-123.9-24.1c-30.5-16.1-50.6-26.3-81.8-19.1c-11.7,2.7-23.2,6.7-32.1,13.8c-33.6,26.8-43.5,66.9-18.5,105.6
		c43.2,72.9,147.6,70.9,236.8,16.8C939.4,830.5,934.1,710.6,934.1,710.6z"/>
</g>
<g id="_x33_rd" class="st0">
	<path id="XMLID_169_" class="st2" d="M99.8,901.1c0,0-40.5-44.5-38.9-89.3c0.6-18.5,6.5-36,6.5-36c14.9-41.9,42.9-66.3,87.3-91.3
		c30.1-16.9,49.5-28.3,60.3-58.5c4-11.3,6.9-23.1,5.7-34.5c-4.4-42.8-32.8-72.7-78.8-72.7c-84.7-3-139.4,85.9-142.2,190.2
		C-3.9,840.7,99.8,901.1,99.8,901.1z"/>
	<path id="XMLID_166_" class="st2" d="M111.7,509.5c0,0,58-16.2,97.3,5.2c16.2,8.8,29.3,22,29.3,22c30.7,32.1,40,68,42.4,118.9
		c1.7,34.5,3.1,56.9,25.3,80.1c8.3,8.7,17.6,16.5,28.3,20.6c40.2,15.2,79.7,3.3,100.3-37.9c40.7-74.3-14.2-163.1-106.2-212.3
		C212.2,443.9,111.7,509.5,111.7,509.5z"/>
	<path id="XMLID_163_" class="st2" d="M456.5,710.6c0,0-15.6,58.1-54.1,81c-15.9,9.5-33.8,14-33.8,14
		c-43.3,10.1-78.9-0.3-123.9-24.1c-30.5-16.1-50.6-26.3-81.8-19.1c-11.7,2.7-23.2,6.7-32.1,13.8c-33.6,26.8-43.5,66.9-18.5,105.6
		c43.2,72.9,147.6,70.9,236.8,16.8C461.8,830.5,456.5,710.6,456.5,710.6z"/>
</g>
<g id="_x32_nd" class="st0">
	<path id="XMLID_154_" class="st3" d="M934.1,231.4c0,0-15.6,58.1-54.1,81c-15.9,9.5-33.8,14-33.8,14
		c-43.3,10.1-78.9-0.3-123.9-24.1c-30.5-16.1-50.6-26.3-81.8-19.1c-11.7,2.7-23.2,6.7-32.1,13.8c-33.6,26.8-43.5,66.9-18.5,105.6
		c43.2,72.9,147.6,70.9,236.8,16.8C939.4,351.3,934.1,231.4,934.1,231.4z"/>
	<path id="XMLID_160_" class="st3" d="M577.4,434.6c0,0-40.5-44.5-38.9-89.3c0.6-18.5,6.5-36,6.5-36c14.9-41.9,42.9-66.3,87.3-91.3
		c30.1-16.9,49.5-28.3,60.3-58.5c4-11.3,6.9-23.1,5.7-34.5c-4.4-42.8-32.8-72.7-78.8-72.7c-84.7-3-139.4,85.9-142.2,190.2
		C473.7,374.2,577.4,434.6,577.4,434.6z"/>
	<path id="XMLID_157_" class="st3" d="M589.3,30.3c0,0,58-16.2,97.3,5.2c16.2,8.8,29.3,22,29.3,22c30.7,32.1,40,68,42.4,118.9
		c1.7,34.5,3.1,56.9,25.3,80.1c8.3,8.7,17.6,16.5,28.3,20.6c40.2,15.2,79.7,3.3,100.3-37.9c40.7-74.3-14.2-163.1-106.2-212.3
		C689.8-35.3,589.3,30.3,589.3,30.3z"/>
</g>
<g id="_x31_st">
	<linearGradient id="XMLID_532_" gradientUnits="userSpaceOnUse" x1="66.7872" y1="416.1578" x2="133.6827" y2="36.7743">
		<stop  offset="0" style="stop-color:#2FAEE4"/>
		<stop  offset="1" style="stop-color:#407EC1"/>
	</linearGradient>
	<path id="XMLID_2_" class="st4" d="M100.3,422.1c0,0-40.5-44.5-38.9-89.3c0.6-18.5,6.5-36,6.5-36c14.9-41.9,42.9-66.3,87.3-91.3
		c30.1-16.9,49.5-28.3,60.3-58.5c4-11.3,6.9-23.1,5.7-34.5c-4.4-42.8-32.8-72.7-78.8-72.7C57.6,36.8,2.9,125.7,0.1,230
		C-3.4,361.7,100.3,422.1,100.3,422.1z"/>
	<linearGradient id="XMLID_533_" gradientUnits="userSpaceOnUse" x1="253.7139" y1="264.818" x2="298.6389" y2="10.0355">
		<stop  offset="0" style="stop-color:#53449B"/>
		<stop  offset="1" style="stop-color:#6B62AC"/>
	</linearGradient>
	<path id="XMLID_4_" class="st5" d="M112.2,30.5c0,0,58-16.2,97.3,5.2c16.2,8.8,29.3,22,29.3,22c30.7,32.1,40,68,42.4,118.9
		c1.7,34.5,3.1,56.9,25.3,80.1c8.3,8.7,17.6,16.5,28.3,20.6c40.2,15.2,79.7,3.3,100.3-37.9C475.7,165.1,420.8,76.3,328.8,27
		C212.7-35.1,112.2,30.5,112.2,30.5z"/>
	<linearGradient id="XMLID_534_" gradientUnits="userSpaceOnUse" x1="248.7709" y1="466.3848" x2="295.2079" y2="203.0273">
		<stop  offset="0" style="stop-color:#EF8E21"/>
		<stop  offset="1" style="stop-color:#F9C425"/>
	</linearGradient>
	<path id="XMLID_5_" class="st6" d="M457,231.6c0,0-15.6,58.1-54.1,81c-15.9,9.5-33.8,14-33.8,14c-43.3,10.1-78.9-0.3-123.9-24.1
		c-30.5-16.1-50.6-26.3-81.8-19.1c-11.7,2.7-23.2,6.7-32.1,13.8c-33.6,26.8-43.5,66.9-18.5,105.6c43.2,72.9,147.6,70.9,236.8,16.8
		C462.3,351.4,457,231.6,457,231.6z"/>
</g>
</svg>
